<?xml version="1.0" encoding="utf-8"?>
<!-- Generator: Adobe Illustrator 28.0.0, SVG Export Plug-In . SVG Version: 6.00 Build 0)  -->
<svg version="1.1" xmlns="http://www.w3.org/2000/svg" xmlns:xlink="http://www.w3.org/1999/xlink" x="0px" y="0px"
	 viewBox="0 0 128 128" style="enable-background:new 0 0 128 128;" xml:space="preserve">
<style type="text/css">
	.st0{fill:#F7931E;}
	.st1{fill:#FBB03B;}
	.st2{fill:#E6E6E6;}
	.st3{fill:#F2F2F2;}
</style>
<g id="Шар_2">
</g>
<g id="Шар_1">
	<g>
		<path class="st0" d="M128,64.21c0,35.35-28.65,64-64,64c-4.25,0-8.41-0.41-12.43-1.21c0.52-0.09,1.04-0.19,1.55-0.29
			c0.37-0.07,0.73-0.14,1.1-0.22c0.38-0.07,0.75-0.15,1.12-0.24c0.38-0.08,0.76-0.17,1.13-0.26c0.57-0.14,1.15-0.28,1.72-0.44
			c0.05-0.01,0.09-0.02,0.14-0.03c0.27-0.07,0.54-0.14,0.81-0.22c0.01,0,0.03-0.01,0.04-0.01s0.03,0,0.04-0.01
			c0.32-0.08,0.64-0.18,0.95-0.27c0.32-0.09,0.63-0.19,0.95-0.28c0.92-0.28,1.83-0.57,2.73-0.88c0.55-0.19,1.1-0.39,1.64-0.59
			c0.25-0.09,0.5-0.18,0.75-0.28c0.09-0.04,0.19-0.07,0.28-0.11c0.43-0.16,0.86-0.33,1.29-0.51c0.16-0.06,0.32-0.13,0.48-0.2
			c0.59-0.24,1.18-0.49,1.76-0.76c0.56-0.24,1.13-0.5,1.68-0.77c0.13-0.05,0.25-0.11,0.37-0.18c0.1-0.05,0.21-0.09,0.31-0.15
			c0.31-0.14,0.62-0.29,0.92-0.45c0.18-0.09,0.35-0.18,0.53-0.27c0.3-0.15,0.6-0.3,0.89-0.46c0.74-0.38,1.46-0.79,2.18-1.2
			c0.53-0.3,1.05-0.61,1.56-0.92c0.17-0.1,0.35-0.2,0.51-0.31c0.56-0.34,1.11-0.7,1.66-1.06c0.01,0,0.02-0.01,0.03-0.02
			c0.65-0.42,1.29-0.85,1.92-1.3c0.3-0.21,0.61-0.42,0.91-0.65c0.4-0.28,0.79-0.57,1.18-0.87c0.27-0.21,0.54-0.41,0.8-0.62
			c0.27-0.21,0.53-0.41,0.79-0.63c0.02,0,0.03-0.01,0.04-0.02c0.09-0.07,0.18-0.15,0.27-0.22c0.21-0.17,0.41-0.34,0.61-0.51
			c0.29-0.24,0.59-0.49,0.87-0.73c0.55-0.47,1.09-0.95,1.62-1.44c0.18-0.16,0.36-0.32,0.53-0.49c0.3-0.27,0.59-0.55,0.87-0.83
			c0.12-0.11,0.23-0.22,0.35-0.34c0.55-0.53,1.08-1.07,1.59-1.62c0.48-0.49,0.94-1,1.4-1.51c0.02-0.02,0.03-0.03,0.05-0.05
			c0.09-0.1,0.18-0.2,0.27-0.31c0.01-0.01,0.01-0.01,0.02-0.02c0.35-0.41,0.71-0.82,1.06-1.24c0.06-0.07,0.11-0.13,0.17-0.2
			c0.03-0.03,0.06-0.07,0.09-0.11c0.23-0.28,0.46-0.56,0.68-0.84c0.23-0.28,0.45-0.56,0.67-0.85c0.43-0.55,0.84-1.11,1.25-1.67
			c0.03-0.04,0.06-0.09,0.09-0.13c0.19-0.25,0.37-0.51,0.54-0.77c0.18-0.25,0.36-0.51,0.52-0.76c0.21-0.3,0.41-0.61,0.61-0.92
			c0.2-0.31,0.4-0.62,0.59-0.93c0.21-0.33,0.42-0.67,0.61-1.01c0.26-0.41,0.5-0.83,0.74-1.25c0.18-0.31,0.34-0.62,0.51-0.93
			c0.17-0.3,0.33-0.61,0.49-0.92c0.05-0.1,0.1-0.19,0.15-0.29c0.01-0.02,0.02-0.03,0.02-0.05c0.18-0.34,0.35-0.68,0.52-1.02
			l0.18-0.38c0.04,0.11,0.08,0.21,0.13,0.31c0.18,0.36,0.44,0.64,0.77,0.84c0.34,0.19,0.72,0.29,1.16,0.29
			c0.37,0,0.71-0.08,1.01-0.24c0.3-0.15,0.56-0.38,0.76-0.66c0.21-0.28,0.35-0.62,0.42-1h-0.91c-0.09,0.33-0.25,0.59-0.49,0.76
			c-0.25,0.18-0.51,0.27-0.79,0.27c-0.39,0-0.7-0.14-0.94-0.42c-0.23-0.27-0.35-0.64-0.35-1.09v-0.72c0.1-0.21,0.19-0.42,0.28-0.63
			c0.02-0.05,0.03-0.09,0.05-0.13c0.15-0.34,0.29-0.68,0.42-1.02c0.1-0.25,0.2-0.49,0.29-0.74h0.01c0.08-0.02,0.16-0.03,0.24-0.03
			c0.19,0,0.37,0.05,0.55,0.13c0.17,0.09,0.32,0.21,0.45,0.36c0.13,0.15,0.22,0.33,0.28,0.54h0.91c-0.07-0.38-0.21-0.71-0.42-1
			c-0.2-0.28-0.46-0.5-0.76-0.66c-0.28-0.15-0.58-0.23-0.92-0.23c0.17-0.43,0.32-0.87,0.47-1.31c0.02-0.06,0.04-0.11,0.06-0.17
			c0.98-0.03,1.76-0.65,1.76-1.44v-4.9c0.09-0.41,0.17-0.82,0.25-1.23c0.08-0.41,0.16-0.82,0.22-1.24c0.05-0.25,0.09-0.51,0.13-0.76
			c0.07-0.44,0.13-0.88,0.19-1.33c0.04-0.23,0.06-0.46,0.09-0.7c0.03-0.23,0.05-0.47,0.08-0.7c0.05-0.48,0.1-0.96,0.14-1.45
			c0.04-0.48,0.07-0.97,0.1-1.46c0.02-0.33,0.03-0.66,0.04-1c0.02-0.25,0.03-0.5,0.03-0.76c0.01-0.48,0.02-0.96,0.02-1.45
			c0-0.49-0.01-0.97-0.02-1.45c0-0.26-0.01-0.51-0.03-0.76c-0.01-0.34-0.02-0.67-0.04-1c-0.03-0.47-0.06-0.93-0.1-1.4
			c-0.04-0.5-0.08-1.01-0.14-1.51c-0.03-0.23-0.05-0.47-0.08-0.7c-0.03-0.24-0.05-0.47-0.09-0.7c-0.06-0.45-0.12-0.89-0.19-1.33
			c-0.04-0.25-0.08-0.51-0.13-0.76c-0.06-0.42-0.14-0.83-0.22-1.24c-0.08-0.41-0.16-0.82-0.25-1.23v-4.9c0-0.77-0.78-1.41-1.76-1.44
			c-0.02-0.06-0.04-0.11-0.06-0.17c-0.22-0.65-0.45-1.29-0.7-1.92c-0.12-0.34-0.26-0.68-0.4-1.02c-0.13-0.34-0.27-0.68-0.42-1.02
			c-0.02-0.04-0.03-0.08-0.05-0.13c-0.28-0.64-0.57-1.29-0.87-1.92l-0.36-0.75c-0.17-0.34-0.34-0.68-0.52-1.02
			c0-0.02-0.01-0.03-0.02-0.05c-0.05-0.1-0.1-0.19-0.15-0.29c-0.16-0.31-0.32-0.62-0.49-0.92c-0.17-0.31-0.33-0.62-0.51-0.93
			c-0.24-0.42-0.48-0.84-0.74-1.25c-0.19-0.34-0.4-0.68-0.61-1.01c-0.19-0.31-0.39-0.62-0.59-0.93c-0.2-0.31-0.4-0.62-0.61-0.92
			c-0.16-0.25-0.34-0.51-0.52-0.76c-0.17-0.26-0.35-0.52-0.54-0.77c-0.03-0.04-0.06-0.09-0.09-0.13c-0.41-0.56-0.82-1.12-1.25-1.67
			c-0.22-0.29-0.44-0.57-0.67-0.85c-0.22-0.28-0.45-0.56-0.68-0.84c-0.03-0.04-0.06-0.08-0.09-0.11c-0.06-0.07-0.11-0.13-0.17-0.2
			c-0.35-0.42-0.71-0.83-1.06-1.24c-0.01-0.01-0.01-0.01-0.02-0.02c-0.09-0.11-0.18-0.21-0.27-0.31c-0.02-0.02-0.03-0.03-0.05-0.05
			c-0.46-0.51-0.92-1.02-1.4-1.51c-0.51-0.55-1.04-1.09-1.59-1.62c-0.12-0.12-0.23-0.23-0.35-0.34c-0.28-0.28-0.57-0.56-0.87-0.83
			c-0.17-0.17-0.35-0.33-0.53-0.49c-0.53-0.49-1.07-0.97-1.62-1.44c-0.28-0.24-0.58-0.49-0.87-0.73c-0.2-0.17-0.4-0.34-0.61-0.51
			c-0.09-0.07-0.18-0.15-0.27-0.22c-0.01-0.01-0.02-0.02-0.04-0.02c-0.26-0.22-0.52-0.42-0.79-0.63c-0.26-0.21-0.53-0.41-0.8-0.62
			c-0.39-0.3-0.78-0.59-1.18-0.87c-0.3-0.23-0.61-0.44-0.91-0.65c-0.63-0.45-1.27-0.88-1.92-1.3c-0.01-0.01-0.02-0.02-0.03-0.02
			c-0.55-0.36-1.1-0.72-1.66-1.06c-0.16-0.11-0.34-0.21-0.51-0.31c-0.51-0.31-1.03-0.62-1.56-0.92c-0.72-0.41-1.44-0.82-2.18-1.2
			c-0.29-0.16-0.59-0.31-0.89-0.46c-0.18-0.09-0.35-0.18-0.53-0.27c-0.3-0.16-0.61-0.31-0.92-0.45c-0.1-0.06-0.21-0.1-0.31-0.15
			c-0.12-0.07-0.24-0.13-0.37-0.18c-0.55-0.27-1.12-0.53-1.68-0.77c-0.58-0.27-1.17-0.52-1.76-0.76c-0.16-0.07-0.32-0.14-0.48-0.2
			c-0.43-0.18-0.86-0.35-1.29-0.51c-0.09-0.04-0.19-0.07-0.28-0.11c-0.25-0.1-0.5-0.19-0.75-0.28c-0.54-0.2-1.09-0.4-1.64-0.59
			c-0.9-0.31-1.81-0.6-2.73-0.88C60.8,3.6,60.49,3.5,60.17,3.41c-0.31-0.09-0.63-0.19-0.95-0.27c-0.01-0.01-0.03-0.01-0.04-0.01
			s-0.03-0.01-0.04-0.01c-0.27-0.08-0.54-0.15-0.81-0.22c-0.05-0.01-0.09-0.02-0.14-0.03c-0.57-0.16-1.15-0.3-1.72-0.44
			c-0.37-0.09-0.75-0.18-1.13-0.26C54.97,2.08,54.6,2,54.22,1.93c-0.37-0.08-0.73-0.15-1.1-0.22c-0.51-0.1-1.03-0.2-1.55-0.29
			c4.02-0.8,8.18-1.21,12.43-1.21C99.35,0.21,128,28.86,128,64.21z"/>
		<path class="st1" d="M52.84,89.34c-0.24-0.26-0.36-0.61-0.36-1.04v-1.13c0.28-0.25,0.56-0.5,0.83-0.76
			c0.24-0.23,0.48-0.46,0.71-0.7c0.18-0.17,0.35-0.34,0.52-0.52c0.08,0.05,0.15,0.11,0.22,0.19c0.24,0.26,0.36,0.61,0.36,1.04v1.88
			c0,0.43-0.12,0.78-0.36,1.04c-0.24,0.27-0.56,0.4-0.96,0.4C53.4,89.74,53.08,89.61,52.84,89.34z"/>
		<path class="st1" d="M60.56,86.73C60.4,86.91,60.19,87,59.93,87h-1.66v-1.99h1.66c0.26,0,0.47,0.1,0.63,0.28
			c0.15,0.18,0.23,0.42,0.23,0.72C60.79,86.31,60.71,86.55,60.56,86.73z"/>
		<path class="st1" d="M69.4,85.4l-0.99,2.9h1.98L69.4,85.4z M69.4,85.4l-0.99,2.9h1.98L69.4,85.4z M69.4,85.4l-0.99,2.9h1.98
			L69.4,85.4z M69.4,85.4l-0.99,2.9h1.98L69.4,85.4z M69.4,85.4l-0.99,2.9h1.98L69.4,85.4z M69.4,85.4l-0.99,2.9h1.98L69.4,85.4z
			 M69.4,85.4l-0.99,2.9h1.98L69.4,85.4z M105.39,85.39c-0.23,0.28-0.35,0.64-0.35,1.1v1.03c0.1-0.21,0.19-0.42,0.28-0.63
			c0.02-0.05,0.03-0.09,0.05-0.13c0.15-0.34,0.29-0.68,0.42-1.02c0.1-0.25,0.2-0.49,0.29-0.74
			C105.81,85.04,105.58,85.17,105.39,85.39z M69.4,85.4l-0.99,2.9h1.98L69.4,85.4z M102.22,81.19V67.74H87.78v13.45
			c0,0.81-0.81,1.44-1.82,1.44h-2.87c-0.99,0-1.8-0.63-1.8-1.44V47.23c0-0.79,0.81-1.44,1.8-1.44h2.87c1.01,0,1.82,0.65,1.82,1.44
			v14.03h14.44V47.23c0-0.79,0.81-1.44,1.8-1.44h2.93c-0.02-0.06-0.04-0.11-0.06-0.17c-0.22-0.65-0.45-1.29-0.7-1.92
			c-0.13-0.34-0.26-0.68-0.4-1.02c-0.13-0.34-0.27-0.68-0.42-1.02c-0.02-0.04-0.03-0.08-0.05-0.13c-0.28-0.64-0.57-1.29-0.87-1.92
			l-0.36-0.75c-0.17-0.34-0.34-0.68-0.52-1.02c0-0.02-0.01-0.03-0.02-0.05c-0.05-0.1-0.1-0.19-0.15-0.29
			c-0.16-0.31-0.32-0.62-0.49-0.92c-0.17-0.31-0.33-0.62-0.51-0.93c-0.24-0.42-0.48-0.84-0.74-1.25c-0.19-0.34-0.4-0.68-0.61-1.01
			c-0.19-0.31-0.39-0.62-0.59-0.93c-0.2-0.31-0.4-0.62-0.61-0.92c-0.17-0.26-0.34-0.51-0.52-0.76c-0.17-0.26-0.35-0.52-0.54-0.77
			c-0.03-0.04-0.06-0.09-0.09-0.13c-0.41-0.56-0.82-1.12-1.25-1.67c-0.22-0.29-0.44-0.57-0.67-0.85c-0.22-0.28-0.45-0.56-0.68-0.84
			c-0.03-0.04-0.06-0.08-0.09-0.11c-0.06-0.07-0.11-0.13-0.17-0.2c-0.35-0.42-0.71-0.83-1.06-1.24c-0.01-0.01-0.01-0.01-0.02-0.02
			c-0.09-0.11-0.18-0.21-0.27-0.31c-0.02-0.02-0.03-0.03-0.05-0.05c-0.46-0.51-0.93-1.02-1.4-1.51c-0.52-0.55-1.05-1.09-1.59-1.62
			c-0.12-0.12-0.23-0.23-0.35-0.34c-0.28-0.28-0.57-0.56-0.87-0.83c-0.17-0.17-0.35-0.33-0.53-0.49c-0.53-0.49-1.07-0.97-1.62-1.44
			c-0.28-0.24-0.58-0.49-0.87-0.73c-0.2-0.17-0.4-0.34-0.61-0.51c-0.09-0.07-0.18-0.15-0.27-0.22c-0.01-0.01-0.02-0.02-0.04-0.02
			c-0.26-0.22-0.52-0.42-0.79-0.63c-0.26-0.21-0.53-0.41-0.8-0.62c-0.39-0.3-0.78-0.59-1.18-0.87c-0.3-0.23-0.61-0.44-0.91-0.65
			c-0.63-0.45-1.27-0.88-1.92-1.3c-0.01-0.01-0.02-0.02-0.03-0.02c-0.55-0.36-1.1-0.72-1.66-1.06c-0.16-0.11-0.34-0.21-0.51-0.31
			c-0.51-0.31-1.03-0.62-1.56-0.92c-0.72-0.41-1.44-0.82-2.18-1.2c-0.29-0.16-0.59-0.31-0.89-0.46c-0.18-0.09-0.35-0.18-0.53-0.27
			c-0.3-0.16-0.61-0.31-0.92-0.45c-0.1-0.06-0.21-0.1-0.31-0.15c-0.12-0.07-0.24-0.13-0.37-0.18c-0.55-0.27-1.12-0.53-1.68-0.77
			c-0.58-0.27-1.17-0.52-1.76-0.76c-0.16-0.07-0.32-0.14-0.48-0.2c-0.43-0.18-0.86-0.35-1.29-0.51c-0.09-0.04-0.19-0.07-0.28-0.11
			c-0.25-0.1-0.5-0.19-0.75-0.28c-0.54-0.2-1.09-0.4-1.64-0.59c-0.9-0.31-1.81-0.6-2.73-0.88C60.8,3.6,60.49,3.5,60.17,3.41
			c-0.31-0.09-0.63-0.19-0.95-0.27c-0.01-0.01-0.03-0.01-0.04-0.01s-0.03-0.01-0.04-0.01c-0.27-0.08-0.54-0.15-0.81-0.22
			c-0.05-0.01-0.09-0.02-0.14-0.03c-0.57-0.16-1.15-0.3-1.72-0.44c-0.37-0.09-0.75-0.18-1.13-0.26C54.97,2.08,54.6,2,54.22,1.93
			c-0.37-0.08-0.73-0.15-1.1-0.22c-0.51-0.1-1.03-0.2-1.55-0.29C35.33,4.61,21.29,13.95,11.99,26.91
			c18.43,2.16,34.04,9.22,43.09,18.88h1.15c0.99,0,1.8,0.65,1.8,1.44v2.12c3.52,4.85,5.47,10.21,5.47,15.86
			c0,3.8-0.88,7.47-2.53,10.94h13.46c0.79,0,1.44,0.85,1.44,1.9v2.68c0,1.05-0.65,1.9-1.44,1.9h-17.6c-0.52,0.64-1.07,1.27-1.65,1.9
			c0.24,0.18,0.43,0.41,0.57,0.68c0.19,0.36,0.28,0.77,0.28,1.25v1.81c0,0.47-0.09,0.88-0.28,1.23c-0.18,0.36-0.44,0.63-0.78,0.83
			c-0.33,0.19-0.72,0.29-1.17,0.29s-0.84-0.1-1.18-0.29c-0.33-0.2-0.59-0.47-0.78-0.83c-0.18-0.35-0.27-0.76-0.27-1.23v-0.3
			c-0.35,0.3-0.71,0.6-1.08,0.89c-0.26,0.22-0.52,0.42-0.79,0.62c-0.26,0.2-0.52,0.4-0.78,0.6c-0.04,0.03-0.09,0.07-0.13,0.1
			c-0.01,0-0.01,0.01-0.02,0.01c-0.05,0.03-0.1,0.07-0.14,0.1c-0.3,0.22-0.6,0.44-0.91,0.65c-0.29,0.21-0.59,0.41-0.89,0.61
			c-0.4,0.27-0.8,0.53-1.21,0.79c-0.41,0.26-0.82,0.52-1.24,0.77c-0.34,0.21-0.69,0.41-1.05,0.61c-0.27,0.16-0.54,0.32-0.82,0.46
			c0,0.01-0.01,0.01-0.01,0.01s-0.01,0-0.01,0.01c-0.61,0.34-1.23,0.67-1.87,0.99c-0.11,0.05-0.21,0.11-0.32,0.16
			c-0.36,0.19-0.72,0.37-1.09,0.54c-0.08,0.04-0.17,0.08-0.25,0.12c-0.25,0.12-0.51,0.24-0.77,0.36c-0.35,0.17-0.71,0.33-1.07,0.49
			c-0.3,0.13-0.6,0.27-0.9,0.39c-0.42,0.18-0.86,0.36-1.29,0.54c-0.11,0.04-0.21,0.09-0.32,0.13c-0.45,0.17-0.9,0.35-1.35,0.52
			c-1.74,0.66-3.54,1.27-5.39,1.82c-0.41,0.12-0.82,0.24-1.24,0.36c-0.41,0.12-0.83,0.24-1.25,0.35c-0.05,0.01-0.11,0.03-0.16,0.04
			c-0.49,0.13-0.99,0.26-1.49,0.38c-0.56,0.14-1.11,0.27-1.68,0.4c-0.04,0.01-0.08,0.02-0.12,0.03c-0.52,0.12-1.04,0.23-1.57,0.34
			c-0.57,0.12-1.13,0.23-1.7,0.34c-0.58,0.11-1.17,0.21-1.76,0.31c-0.58,0.1-1.17,0.19-1.76,0.28c-0.59,0.09-1.18,0.17-1.78,0.25
			c9.28,12.01,22.74,20.62,38.21,23.66c0.52-0.09,1.04-0.19,1.55-0.29c0.37-0.07,0.73-0.14,1.1-0.22c0.38-0.07,0.75-0.15,1.12-0.24
			c0.38-0.08,0.76-0.17,1.13-0.26c0.57-0.14,1.15-0.28,1.72-0.44c0.05-0.01,0.09-0.02,0.14-0.03c0.27-0.07,0.54-0.14,0.81-0.22
			c0.01,0,0.03-0.01,0.04-0.01s0.03,0,0.04-0.01c0.32-0.08,0.64-0.18,0.95-0.27c0.32-0.09,0.63-0.19,0.95-0.28
			c0.92-0.28,1.83-0.57,2.73-0.88c0.55-0.19,1.1-0.39,1.64-0.59c0.25-0.09,0.5-0.18,0.75-0.28c0.09-0.04,0.19-0.07,0.28-0.11
			c0.43-0.16,0.86-0.33,1.29-0.51c0.16-0.06,0.32-0.13,0.48-0.2c0.59-0.24,1.18-0.49,1.76-0.76c0.56-0.24,1.13-0.5,1.68-0.77
			c0.13-0.05,0.25-0.11,0.37-0.18c0.1-0.05,0.21-0.09,0.31-0.15c0.31-0.14,0.62-0.29,0.92-0.45c0.18-0.09,0.35-0.18,0.53-0.27
			c0.3-0.15,0.6-0.3,0.89-0.46c0.74-0.38,1.46-0.79,2.18-1.2c0.53-0.3,1.05-0.61,1.56-0.92c0.17-0.1,0.35-0.2,0.51-0.31
			c0.56-0.34,1.11-0.7,1.66-1.06c0.01,0,0.02-0.01,0.03-0.02c0.65-0.42,1.29-0.85,1.92-1.3c0.3-0.21,0.61-0.42,0.91-0.65
			c0.4-0.28,0.79-0.57,1.18-0.87c0.27-0.21,0.54-0.41,0.8-0.62c0.27-0.21,0.53-0.41,0.79-0.63c0.02,0,0.03-0.01,0.04-0.02
			c0.09-0.07,0.18-0.15,0.27-0.22c0.21-0.17,0.41-0.34,0.61-0.51c0.29-0.24,0.59-0.49,0.87-0.73c0.55-0.47,1.09-0.95,1.62-1.44
			c0.18-0.16,0.36-0.32,0.53-0.49c0.3-0.27,0.59-0.55,0.87-0.83c0.12-0.11,0.23-0.22,0.35-0.34c0.54-0.53,1.07-1.07,1.59-1.62
			c0.47-0.49,0.94-1,1.4-1.51c0.02-0.02,0.03-0.03,0.05-0.05c0.09-0.1,0.18-0.2,0.27-0.31c0.01-0.01,0.01-0.01,0.02-0.02
			c0.35-0.41,0.71-0.82,1.06-1.24c0.06-0.07,0.11-0.13,0.17-0.2c0.03-0.03,0.06-0.07,0.09-0.11c0.23-0.28,0.46-0.56,0.68-0.84
			c0.23-0.28,0.45-0.56,0.67-0.85c0.43-0.55,0.84-1.11,1.25-1.67c0.03-0.04,0.06-0.09,0.09-0.13c0.19-0.25,0.37-0.51,0.54-0.77
			c0.18-0.25,0.35-0.5,0.52-0.76c0.21-0.3,0.41-0.61,0.61-0.92c0.2-0.31,0.4-0.62,0.59-0.93c0.21-0.33,0.42-0.67,0.61-1.01
			c0.26-0.41,0.5-0.83,0.74-1.25c0.18-0.31,0.34-0.62,0.51-0.93c0.17-0.3,0.33-0.61,0.49-0.92c0.05-0.1,0.1-0.19,0.15-0.29
			c0.01-0.02,0.02-0.03,0.02-0.05c0.18-0.34,0.35-0.68,0.52-1.02l0.18-0.38c-0.09-0.28-0.14-0.59-0.14-0.94v-1.75
			c0-0.48,0.09-0.9,0.27-1.26c0.18-0.36,0.44-0.64,0.77-0.83c0.34-0.2,0.72-0.3,1.16-0.3c0.03,0,0.06,0,0.09,0.01
			c0.17-0.43,0.32-0.87,0.47-1.31c0.02-0.06,0.04-0.11,0.06-0.17h-2.93C103.03,82.63,102.22,82,102.22,81.19z M60.95,90.56
			l-1.35-2.71h-1.33v2.71h-0.89v-6.4h2.52c0.37,0,0.69,0.08,0.97,0.23c0.27,0.16,0.49,0.37,0.64,0.65c0.15,0.27,0.23,0.6,0.23,0.97
			s-0.08,0.69-0.23,0.97c-0.16,0.27-0.37,0.49-0.64,0.64c-0.1,0.06-0.21,0.11-0.33,0.14l1.47,2.8H60.95z M65.02,85.02v5.54h-0.89
			v-5.54h-1.8v-0.85h4.48v0.85H65.02z M71.16,90.56l-0.48-1.41h-2.56l-0.48,1.41h-0.96l2.34-6.39h0.76l2.34,6.39H71.16z
			 M76.51,85.02h-1.79v5.54h-0.89v-5.54h-1.8v-0.85h4.48V85.02z M90.21,90.55H89.4l-2.99-4.69v4.69h-0.88v-6.38h0.8l3,4.77v-4.77
			h0.88V90.55z M98.26,90.56h-4.08v-6.39h0.89v5.53h3.19V90.56z M103.38,90.56h-4.07v-6.39h0.89v5.53h3.18V90.56z M68.41,88.3h1.98
			l-0.99-2.9L68.41,88.3z M69.4,85.4l-0.99,2.9h1.98L69.4,85.4z M69.4,85.4l-0.99,2.9h1.98L69.4,85.4z M69.4,85.4l-0.99,2.9h1.98
			L69.4,85.4z M69.4,85.4l-0.99,2.9h1.98L69.4,85.4z M69.4,85.4l-0.99,2.9h1.98L69.4,85.4z M69.4,85.4l-0.99,2.9h1.98L69.4,85.4z"/>
		<path class="st1" d="M110,64.21c0,0.49-0.01,0.97-0.02,1.45c0,0.26-0.01,0.51-0.03,0.76c-0.01,0.34-0.02,0.67-0.04,1
			c-0.03,0.49-0.06,0.98-0.1,1.46c-0.04,0.49-0.09,0.97-0.14,1.45c-0.03,0.23-0.05,0.47-0.08,0.7c-0.03,0.24-0.05,0.47-0.09,0.7
			c-0.06,0.45-0.12,0.89-0.19,1.33c-0.04,0.25-0.08,0.51-0.13,0.76c-0.06,0.42-0.14,0.83-0.22,1.24c-0.08,0.41-0.16,0.82-0.25,1.23
			V52.13c0.09,0.41,0.17,0.82,0.25,1.23c0.08,0.41,0.16,0.82,0.22,1.24c0.05,0.25,0.09,0.51,0.13,0.76
			c0.07,0.44,0.13,0.88,0.19,1.33c0.04,0.23,0.06,0.46,0.09,0.7c0.03,0.23,0.05,0.47,0.08,0.7c0.05,0.5,0.1,1.01,0.14,1.51
			c0.04,0.47,0.07,0.93,0.1,1.4c0.02,0.33,0.03,0.66,0.04,1c0.02,0.25,0.03,0.5,0.03,0.76C109.99,63.24,110,63.72,110,64.21z"/>
		<path class="st0" d="M36.81,52.82c1.5,1.42,2.25,3.41,2.25,5.97v10.85c0,2.57-0.75,4.56-2.25,5.96c-1.5,1.41-3.6,2.12-6.31,2.12
			h-6.01V50.7h6.01C33.21,50.7,35.31,51.41,36.81,52.82z"/>
		<path class="st0" d="M49.41,85.32c-0.18-0.2-0.41-0.3-0.7-0.3h-1.6v2.2h1.6c0.29,0,0.52-0.1,0.7-0.3c0.17-0.2,0.26-0.47,0.26-0.79
			C49.67,85.79,49.58,85.52,49.41,85.32z M49.41,85.32c-0.18-0.2-0.41-0.3-0.7-0.3h-1.6v2.2h1.6c0.29,0,0.52-0.1,0.7-0.3
			c0.17-0.2,0.26-0.47,0.26-0.79C49.67,85.79,49.58,85.52,49.41,85.32z M26.33,85.29c-0.16-0.18-0.37-0.28-0.62-0.28h-1.67V87h1.67
			c0.25,0,0.46-0.09,0.62-0.27c0.16-0.18,0.23-0.42,0.23-0.72C26.56,85.71,26.49,85.47,26.33,85.29z M49.41,85.32
			c-0.18-0.2-0.41-0.3-0.7-0.3h-1.6v2.2h1.6c0.29,0,0.52-0.1,0.7-0.3c0.17-0.2,0.26-0.47,0.26-0.79
			C49.67,85.79,49.58,85.52,49.41,85.32z M49.41,85.32c-0.18-0.2-0.41-0.3-0.7-0.3h-1.6v2.2h1.6c0.29,0,0.52-0.1,0.7-0.3
			c0.17-0.2,0.26-0.47,0.26-0.79C49.67,85.79,49.58,85.52,49.41,85.32z M26.33,85.29c-0.16-0.18-0.37-0.28-0.62-0.28h-1.67V87h1.67
			c0.25,0,0.46-0.09,0.62-0.27c0.16-0.18,0.23-0.42,0.23-0.72C26.56,85.71,26.49,85.47,26.33,85.29z M26.33,85.29
			c-0.16-0.18-0.37-0.28-0.62-0.28h-1.67V87h1.67c0.25,0,0.46-0.09,0.62-0.27c0.16-0.18,0.23-0.42,0.23-0.72
			C26.56,85.71,26.49,85.47,26.33,85.29z M30.87,85.4l-0.99,2.9h1.98L30.87,85.4z M49.41,85.32c-0.18-0.2-0.41-0.3-0.7-0.3h-1.6v2.2
			h1.6c0.29,0,0.52-0.1,0.7-0.3c0.17-0.2,0.26-0.47,0.26-0.79C49.67,85.79,49.58,85.52,49.41,85.32z M49.41,85.32
			c-0.18-0.2-0.41-0.3-0.7-0.3h-1.6v2.2h1.6c0.29,0,0.52-0.1,0.7-0.3c0.17-0.2,0.26-0.47,0.26-0.79
			C49.67,85.79,49.58,85.52,49.41,85.32z M30.87,85.4l-0.99,2.9h1.98L30.87,85.4z M26.33,85.29c-0.16-0.18-0.37-0.28-0.62-0.28
			h-1.67V87h1.67c0.25,0,0.46-0.09,0.62-0.27c0.16-0.18,0.23-0.42,0.23-0.72C26.56,85.71,26.49,85.47,26.33,85.29z M53.36,82.63
			c-1.01,0-1.82-0.63-1.82-1.44V47.23c0-0.79,0.81-1.44,1.82-1.44h1.72c-9.05-9.66-24.66-16.72-43.09-18.88
			C4.44,37.41,0,50.29,0,64.21c0,14.74,4.98,28.31,13.36,39.13c0.6-0.08,1.19-0.16,1.78-0.25c0.59-0.09,1.18-0.18,1.76-0.28
			c0.59-0.1,1.18-0.2,1.76-0.31c0.57-0.11,1.13-0.22,1.7-0.34c0.53-0.11,1.05-0.22,1.57-0.34c0.04-0.01,0.08-0.02,0.12-0.03
			c0.57-0.13,1.12-0.26,1.68-0.4c0.5-0.12,1-0.25,1.49-0.38c0.05-0.01,0.11-0.03,0.16-0.04c0.42-0.11,0.84-0.23,1.25-0.35
			c0.42-0.12,0.83-0.24,1.24-0.36c1.85-0.55,3.65-1.16,5.39-1.82c0.45-0.17,0.9-0.35,1.35-0.52c0.11-0.04,0.21-0.09,0.32-0.13
			c0.43-0.18,0.87-0.36,1.29-0.54c0.3-0.12,0.6-0.26,0.9-0.39c0.36-0.16,0.72-0.32,1.07-0.49c0.26-0.12,0.52-0.24,0.77-0.36
			c0.08-0.04,0.17-0.08,0.25-0.12c0.37-0.17,0.73-0.35,1.09-0.54c0.11-0.05,0.21-0.11,0.32-0.16c0.64-0.32,1.26-0.65,1.87-0.99
			c0-0.01,0.01-0.01,0.01-0.01s0.01,0,0.01-0.01c0.28-0.14,0.55-0.3,0.82-0.46c0.36-0.2,0.71-0.4,1.05-0.61
			c0.42-0.25,0.83-0.51,1.24-0.77c0.41-0.26,0.81-0.52,1.21-0.79c0.3-0.2,0.6-0.4,0.89-0.61c0.31-0.21,0.61-0.43,0.91-0.65
			c0.04-0.03,0.09-0.07,0.14-0.1c0.01,0,0.01-0.01,0.02-0.01c0.04-0.03,0.09-0.07,0.13-0.1c0.26-0.2,0.52-0.4,0.78-0.6
			c0.27-0.2,0.53-0.41,0.79-0.62c0.37-0.29,0.73-0.59,1.08-0.89v-1.51c0-0.48,0.09-0.89,0.27-1.25c0.19-0.35,0.45-0.62,0.78-0.82
			c0.34-0.19,0.73-0.29,1.18-0.29s0.84,0.1,1.17,0.29c0.07,0.04,0.14,0.09,0.21,0.14c0.58-0.63,1.13-1.26,1.65-1.9H53.36z
			 M22.28,85.02h-1.79v5.54H19.6v-5.54h-1.8v-0.85h4.48V85.02z M26.72,90.56l-1.35-2.71h-1.33v2.71h-0.89v-6.4h2.52
			c0.37,0,0.69,0.08,0.97,0.23c0.28,0.16,0.49,0.37,0.64,0.65c0.16,0.27,0.23,0.6,0.23,0.97s-0.08,0.69-0.23,0.97
			c-0.15,0.27-0.37,0.49-0.64,0.64c-0.1,0.06-0.21,0.11-0.33,0.14l1.47,2.8H26.72z M32.63,90.56l-0.48-1.41h-2.56l-0.48,1.41h-0.96
			l2.34-6.39h0.76l2.34,6.39H32.63z M39.23,90.55h-0.81l-2.99-4.69v4.69h-0.88v-6.38h0.8l3,4.77v-4.77h0.88V90.55z M37.92,81.07
			c-2.1,1.04-4.64,1.56-7.61,1.56H19.8c-0.99,0-1.8-0.63-1.8-1.44V47.23c0-0.79,0.81-1.44,1.8-1.44h10.54
			c4.45,0,7.91,1.15,10.35,3.46c2.43,2.31,3.66,5.56,3.66,9.74v10.44c0,2.79-0.55,5.17-1.64,7.13
			C41.61,78.54,40.01,80.04,37.92,81.07z M50.35,87.15c-0.16,0.3-0.38,0.52-0.67,0.68c-0.28,0.17-0.62,0.25-1,0.25h-1.57v2.48h-0.89
			v-6.39h2.46c0.38,0,0.72,0.08,1,0.24c0.29,0.16,0.51,0.39,0.67,0.68c0.16,0.3,0.24,0.64,0.24,1.04
			C50.59,86.52,50.51,86.86,50.35,87.15z M52.84,85.38c-0.24,0.26-0.36,0.61-0.36,1.04v0.75c0.28-0.25,0.56-0.5,0.83-0.76
			c0.24-0.23,0.48-0.46,0.71-0.7c0.18-0.17,0.35-0.34,0.52-0.52c-0.21-0.14-0.45-0.21-0.74-0.21C53.4,84.98,53.08,85.11,52.84,85.38
			z M48.71,85.02h-1.6v2.2h1.6c0.29,0,0.52-0.1,0.7-0.3c0.17-0.2,0.26-0.47,0.26-0.79c0-0.34-0.09-0.61-0.26-0.81
			C49.23,85.12,49,85.02,48.71,85.02z M29.88,88.3h1.98l-0.99-2.9L29.88,88.3z M26.56,86.01c0-0.3-0.07-0.54-0.23-0.72
			c-0.16-0.18-0.37-0.28-0.62-0.28h-1.67V87h1.67c0.25,0,0.46-0.09,0.62-0.27C26.49,86.55,26.56,86.31,26.56,86.01z M26.33,85.29
			c-0.16-0.18-0.37-0.28-0.62-0.28h-1.67V87h1.67c0.25,0,0.46-0.09,0.62-0.27c0.16-0.18,0.23-0.42,0.23-0.72
			C26.56,85.71,26.49,85.47,26.33,85.29z M30.87,85.4l-0.99,2.9h1.98L30.87,85.4z M49.41,85.32c-0.18-0.2-0.41-0.3-0.7-0.3h-1.6v2.2
			h1.6c0.29,0,0.52-0.1,0.7-0.3c0.17-0.2,0.26-0.47,0.26-0.79C49.67,85.79,49.58,85.52,49.41,85.32z M49.41,85.32
			c-0.18-0.2-0.41-0.3-0.7-0.3h-1.6v2.2h1.6c0.29,0,0.52-0.1,0.7-0.3c0.17-0.2,0.26-0.47,0.26-0.79
			C49.67,85.79,49.58,85.52,49.41,85.32z M30.87,85.4l-0.99,2.9h1.98L30.87,85.4z M26.33,85.29c-0.16-0.18-0.37-0.28-0.62-0.28
			h-1.67V87h1.67c0.25,0,0.46-0.09,0.62-0.27c0.16-0.18,0.23-0.42,0.23-0.72C26.56,85.71,26.49,85.47,26.33,85.29z M26.33,85.29
			c-0.16-0.18-0.37-0.28-0.62-0.28h-1.67V87h1.67c0.25,0,0.46-0.09,0.62-0.27c0.16-0.18,0.23-0.42,0.23-0.72
			C26.56,85.71,26.49,85.47,26.33,85.29z M49.41,85.32c-0.18-0.2-0.41-0.3-0.7-0.3h-1.6v2.2h1.6c0.29,0,0.52-0.1,0.7-0.3
			c0.17-0.2,0.26-0.47,0.26-0.79C49.67,85.79,49.58,85.52,49.41,85.32z M49.41,85.32c-0.18-0.2-0.41-0.3-0.7-0.3h-1.6v2.2h1.6
			c0.29,0,0.52-0.1,0.7-0.3c0.17-0.2,0.26-0.47,0.26-0.79C49.67,85.79,49.58,85.52,49.41,85.32z M26.33,85.29
			c-0.16-0.18-0.37-0.28-0.62-0.28h-1.67V87h1.67c0.25,0,0.46-0.09,0.62-0.27c0.16-0.18,0.23-0.42,0.23-0.72
			C26.56,85.71,26.49,85.47,26.33,85.29z M49.41,85.32c-0.18-0.2-0.41-0.3-0.7-0.3h-1.6v2.2h1.6c0.29,0,0.52-0.1,0.7-0.3
			c0.17-0.2,0.26-0.47,0.26-0.79C49.67,85.79,49.58,85.52,49.41,85.32z M49.41,85.32c-0.18-0.2-0.41-0.3-0.7-0.3h-1.6v2.2h1.6
			c0.29,0,0.52-0.1,0.7-0.3c0.17-0.2,0.26-0.47,0.26-0.79C49.67,85.79,49.58,85.52,49.41,85.32z"/>
		<path class="st0" d="M63.5,65.21c0,3.8-0.88,7.47-2.53,10.94h-2.94v-26.8C61.55,54.2,63.5,59.56,63.5,65.21z"/>
	</g>
	<g>
		<path class="st2" d="M40.69,49.25c-2.44-2.31-5.9-3.46-10.35-3.46H19.8c-0.99,0-1.8,0.65-1.8,1.44v33.96
			c0,0.81,0.81,1.44,1.8,1.44h10.51c2.97,0,5.51-0.52,7.61-1.56c2.09-1.03,3.69-2.53,4.79-4.51c1.09-1.96,1.64-4.34,1.64-7.13V58.99
			C44.35,54.81,43.12,51.56,40.69,49.25z M39.06,69.64c0,2.57-0.75,4.56-2.25,5.96c-1.5,1.41-3.6,2.12-6.31,2.12h-6.01V50.7h6.01
			c2.71,0,4.81,0.71,6.31,2.12c1.5,1.42,2.25,3.41,2.25,5.97V69.64z"/>
		<path class="st3" d="M75.87,78.05v2.68c0,1.05-0.65,1.9-1.44,1.9h-17.6c1.68-2.06,3.07-4.23,4.14-6.48h13.46
			C75.22,76.15,75.87,77,75.87,78.05z"/>
		<path class="st2" d="M60.97,76.15c-1.07,2.25-2.46,4.42-4.14,6.48h-3.47c-1.01,0-1.82-0.63-1.82-1.44V47.23
			c0-0.79,0.81-1.44,1.82-1.44h1.72c1.08,1.15,2.07,2.34,2.95,3.56v26.8H60.97z"/>
		<path class="st3" d="M58.03,47.23v2.12c-0.88-1.22-1.87-2.41-2.95-3.56h1.15C57.22,45.79,58.03,46.44,58.03,47.23z"/>
		<path class="st3" d="M108.71,52.13v24.16c-0.08,0.39-0.17,0.78-0.27,1.16c-0.01,0.04-0.02,0.09-0.03,0.13
			c-0.06,0.26-0.12,0.51-0.19,0.77c-0.09,0.36-0.19,0.72-0.29,1.08c-0.07,0.27-0.15,0.54-0.23,0.81c-0.23,0.8-0.48,1.6-0.75,2.39
			h-2.93c-0.99,0-1.8-0.63-1.8-1.44V67.74H87.78v13.45c0,0.81-0.81,1.44-1.82,1.44h-2.87c-0.99,0-1.8-0.63-1.8-1.44V47.23
			c0-0.79,0.81-1.44,1.8-1.44h2.87c1.01,0,1.82,0.65,1.82,1.44v14.03h14.44V47.23c0-0.79,0.81-1.44,1.8-1.44h2.93
			c0.27,0.79,0.52,1.59,0.75,2.39c0.08,0.27,0.16,0.54,0.23,0.81c0.1,0.36,0.2,0.72,0.29,1.08c0.07,0.26,0.13,0.51,0.19,0.77
			c0.01,0.04,0.02,0.09,0.03,0.13C108.54,51.35,108.63,51.74,108.71,52.13z"/>
		<path class="st2" d="M108.71,47.23v4.9c-0.08-0.39-0.17-0.78-0.27-1.16c-0.01-0.04-0.02-0.09-0.03-0.13
			c-0.06-0.26-0.12-0.51-0.19-0.77c-0.09-0.36-0.19-0.72-0.29-1.08c-0.07-0.27-0.14-0.54-0.23-0.81c-0.23-0.8-0.48-1.6-0.75-2.39
			C107.93,45.82,108.71,46.46,108.71,47.23z"/>
		<path class="st2" d="M108.71,76.29v4.9c0,0.79-0.78,1.41-1.76,1.44c0.27-0.79,0.52-1.59,0.75-2.39c0.08-0.27,0.16-0.54,0.23-0.81
			c0.1-0.36,0.2-0.72,0.29-1.08c0.07-0.26,0.13-0.51,0.19-0.77c0.01-0.04,0.02-0.09,0.03-0.13
			C108.54,77.07,108.63,76.68,108.71,76.29z"/>
	</g>
	<g>
		<polygon class="st2" points="22.28,84.17 22.28,85.02 20.49,85.02 20.49,90.56 19.6,90.56 19.6,85.02 17.8,85.02 17.8,84.17 		"/>
		<path class="st2" d="M26.31,87.76c0.12-0.03,0.23-0.08,0.33-0.14c0.27-0.15,0.49-0.37,0.64-0.64c0.15-0.28,0.23-0.6,0.23-0.97
			s-0.07-0.7-0.23-0.97c-0.15-0.28-0.36-0.49-0.64-0.65c-0.28-0.15-0.6-0.23-0.97-0.23h-2.52v6.4h0.89v-2.71h1.33l1.35,2.71h1.06
			L26.31,87.76z M24.04,85.01h1.67c0.25,0,0.46,0.1,0.62,0.28c0.16,0.18,0.23,0.42,0.23,0.72c0,0.3-0.07,0.54-0.23,0.72
			C26.17,86.91,25.96,87,25.71,87h-1.67V85.01z"/>
		<path class="st2" d="M31.25,84.17h-0.76l-2.34,6.39h0.96l0.48-1.41h2.56l0.48,1.41h0.96L31.25,84.17z M29.88,88.3l0.99-2.9
			l0.99,2.9H29.88z"/>
		<polygon class="st2" points="39.23,84.17 39.23,90.55 38.42,90.55 35.43,85.86 35.43,90.55 34.55,90.55 34.55,84.17 35.35,84.17 
			38.35,88.94 38.35,84.17 		"/>
		<path class="st2" d="M42.71,90.62c-0.31,0-0.6-0.03-0.87-0.09c-0.27-0.06-0.53-0.15-0.76-0.26c-0.24-0.12-0.46-0.26-0.67-0.44
			l0.55-0.69c0.24,0.21,0.51,0.37,0.8,0.47s0.61,0.16,0.95,0.16c0.46,0,0.82-0.09,1.07-0.26c0.25-0.17,0.38-0.41,0.38-0.72v0
			c0-0.24-0.06-0.43-0.19-0.56s-0.3-0.23-0.5-0.29c-0.21-0.06-0.44-0.12-0.68-0.16c-0.24-0.04-0.48-0.09-0.72-0.15
			c-0.24-0.05-0.47-0.14-0.67-0.26c-0.2-0.12-0.37-0.29-0.49-0.51c-0.12-0.22-0.19-0.52-0.19-0.89v0c0-0.59,0.2-1.05,0.59-1.38
			c0.39-0.33,0.95-0.49,1.66-0.49c0.34,0,0.67,0.05,1,0.16c0.33,0.11,0.64,0.28,0.95,0.5l-0.51,0.71c-0.24-0.18-0.48-0.32-0.72-0.4
			c-0.24-0.09-0.48-0.13-0.72-0.13c-0.43,0-0.77,0.09-1.01,0.26c-0.24,0.17-0.36,0.42-0.36,0.74v0c0,0.24,0.07,0.42,0.21,0.55
			c0.14,0.13,0.32,0.22,0.55,0.28c0.23,0.06,0.47,0.12,0.73,0.17c0.23,0.05,0.47,0.1,0.7,0.17c0.23,0.07,0.44,0.16,0.63,0.29
			c0.19,0.12,0.34,0.3,0.46,0.51c0.11,0.22,0.17,0.5,0.17,0.85v0.01c0,0.59-0.2,1.04-0.61,1.37C44.02,90.46,43.45,90.62,42.71,90.62
			z"/>
		<path class="st2" d="M50.35,85.09c-0.16-0.29-0.38-0.52-0.67-0.68c-0.28-0.16-0.62-0.24-1-0.24h-2.46v6.39h0.89v-2.48h1.57
			c0.38,0,0.72-0.08,1-0.25c0.29-0.16,0.51-0.38,0.67-0.68c0.16-0.29,0.24-0.63,0.24-1.02C50.59,85.73,50.51,85.39,50.35,85.09z
			 M49.41,86.92c-0.18,0.2-0.41,0.3-0.7,0.3h-1.6v-2.2h1.6c0.29,0,0.52,0.1,0.7,0.3c0.17,0.2,0.26,0.47,0.26,0.81
			C49.67,86.45,49.58,86.72,49.41,86.92z"/>
		<path class="st2" d="M55.18,84.53c-0.21,0.22-0.42,0.44-0.64,0.66c-0.21-0.14-0.45-0.21-0.74-0.21c-0.4,0-0.72,0.13-0.96,0.4
			c-0.24,0.26-0.36,0.61-0.36,1.04v0.75c-0.29,0.27-0.6,0.54-0.91,0.8v-1.51c0-0.48,0.09-0.89,0.27-1.25
			c0.19-0.35,0.45-0.62,0.78-0.82c0.34-0.19,0.73-0.29,1.18-0.29s0.84,0.1,1.17,0.29C55.04,84.43,55.11,84.48,55.18,84.53z"/>
		<path class="st3" d="M56.03,86.46v1.81c0,0.47-0.09,0.88-0.28,1.23c-0.18,0.36-0.44,0.63-0.78,0.83
			c-0.33,0.19-0.72,0.29-1.17,0.29s-0.84-0.1-1.18-0.29c-0.33-0.2-0.59-0.47-0.78-0.83c-0.18-0.35-0.27-0.76-0.27-1.23v-0.3
			c0.31-0.26,0.62-0.53,0.91-0.8v1.13c0,0.43,0.12,0.78,0.36,1.04c0.24,0.27,0.56,0.4,0.96,0.4c0.4,0,0.72-0.13,0.96-0.4
			c0.24-0.26,0.36-0.61,0.36-1.04v-1.88c0-0.43-0.12-0.78-0.36-1.04c-0.07-0.08-0.14-0.14-0.22-0.19c0.22-0.22,0.43-0.44,0.64-0.66
			c0.24,0.18,0.43,0.41,0.57,0.68C55.94,85.57,56.03,85.98,56.03,86.46z"/>
		<path class="st3" d="M60.54,87.76c0.12-0.03,0.23-0.08,0.33-0.14c0.27-0.15,0.48-0.37,0.64-0.64c0.15-0.28,0.23-0.6,0.23-0.97
			s-0.08-0.7-0.23-0.97c-0.15-0.28-0.37-0.49-0.64-0.65c-0.28-0.15-0.6-0.23-0.97-0.23h-2.52v6.4h0.89v-2.71h1.33l1.35,2.71h1.06
			L60.54,87.76z M58.27,85.01h1.66c0.26,0,0.47,0.1,0.63,0.28c0.15,0.18,0.23,0.42,0.23,0.72c0,0.3-0.08,0.54-0.23,0.72
			C60.4,86.91,60.19,87,59.93,87h-1.66V85.01z"/>
		<polygon class="st3" points="66.81,84.17 66.81,85.02 65.02,85.02 65.02,90.56 64.13,90.56 64.13,85.02 62.33,85.02 62.33,84.17 
					"/>
		<path class="st3" d="M69.78,84.17h-0.76l-2.34,6.39h0.96l0.48-1.41h2.56l0.48,1.41h0.96L69.78,84.17z M68.41,88.3l0.99-2.9
			l0.99,2.9H68.41z"/>
		<polygon class="st3" points="76.51,84.17 76.51,85.02 74.72,85.02 74.72,90.56 73.83,90.56 73.83,85.02 72.03,85.02 72.03,84.17 
					"/>
		<path class="st3" d="M78.27,84.17v6.39h-0.89v-6.39H78.27z"/>
		<path class="st3" d="M81.94,90.62c-0.45,0-0.84-0.1-1.17-0.29c-0.33-0.19-0.59-0.47-0.78-0.82c-0.18-0.35-0.28-0.77-0.28-1.24
			v-1.81c0-0.47,0.09-0.89,0.28-1.24c0.18-0.35,0.44-0.63,0.78-0.82c0.33-0.2,0.73-0.29,1.17-0.29s0.84,0.1,1.17,0.29
			c0.33,0.19,0.59,0.47,0.78,0.82c0.18,0.35,0.28,0.77,0.28,1.24v1.81c0,0.47-0.09,0.88-0.28,1.24c-0.18,0.36-0.44,0.63-0.78,0.82
			C82.78,90.52,82.39,90.62,81.94,90.62z M81.94,89.74c0.4,0,0.72-0.13,0.96-0.4s0.36-0.61,0.36-1.05v-1.87
			c0-0.44-0.12-0.79-0.36-1.05c-0.24-0.26-0.56-0.39-0.96-0.39c-0.4,0-0.71,0.13-0.96,0.39c-0.24,0.26-0.36,0.61-0.36,1.05v1.87
			c0,0.43,0.12,0.78,0.36,1.05C81.23,89.61,81.55,89.74,81.94,89.74z"/>
		<polygon class="st3" points="90.21,84.17 90.21,90.55 89.4,90.55 86.41,85.86 86.41,90.55 85.53,90.55 85.53,84.17 86.33,84.17 
			89.33,88.94 89.33,84.17 		"/>
		<polygon class="st3" points="98.26,89.7 98.26,90.56 94.18,90.56 94.18,84.17 95.07,84.17 95.07,89.7 		"/>
		<polygon class="st3" points="103.38,89.7 103.38,90.56 99.31,90.56 99.31,84.17 100.2,84.17 100.2,89.7 		"/>
		<path class="st2" d="M106.08,85h0.01c0.03-0.09,0.07-0.19,0.1-0.28C106.15,84.81,106.12,84.91,106.08,85z"/>
		<path class="st2" d="M108.52,86h-0.91c-0.06-0.21-0.15-0.39-0.28-0.54c-0.13-0.15-0.28-0.27-0.45-0.36
			c-0.18-0.08-0.36-0.13-0.55-0.13c-0.08,0-0.16,0.01-0.24,0.03c0.03-0.09,0.07-0.19,0.1-0.28c0.08-0.2,0.16-0.41,0.23-0.61
			c0.34,0,0.64,0.08,0.92,0.23c0.3,0.16,0.56,0.38,0.76,0.66C108.31,85.29,108.45,85.62,108.52,86z"/>
		<path class="st3" d="M106.42,84.11c-0.07,0.2-0.15,0.41-0.23,0.61c-0.04,0.09-0.07,0.19-0.11,0.28c-0.27,0.04-0.5,0.17-0.69,0.39
			c-0.23,0.28-0.35,0.64-0.35,1.1v1.03c-0.19,0.43-0.39,0.87-0.59,1.29l-0.18,0.37c-0.09-0.28-0.14-0.59-0.14-0.94v-1.75
			c0-0.48,0.09-0.9,0.27-1.26c0.18-0.36,0.44-0.64,0.77-0.83c0.34-0.2,0.72-0.3,1.16-0.3C106.36,84.1,106.39,84.1,106.42,84.11z"/>
		<path class="st2" d="M108.52,88.72c-0.07,0.38-0.21,0.72-0.42,1c-0.2,0.28-0.46,0.51-0.76,0.66c-0.3,0.16-0.64,0.24-1.01,0.24
			c-0.44,0-0.82-0.1-1.16-0.29c-0.33-0.2-0.59-0.48-0.77-0.84c-0.05-0.1-0.09-0.2-0.13-0.31l0.18-0.37c0.2-0.42,0.4-0.86,0.59-1.29
			v0.72c0,0.45,0.12,0.82,0.35,1.09c0.24,0.28,0.55,0.42,0.94,0.42c0.28,0,0.54-0.09,0.79-0.27c0.24-0.17,0.4-0.43,0.49-0.76H108.52
			z"/>
	</g>
</g>
</svg>
